%
M48
M72
T01C0.03200
T02C0.03543
T03C0.04000
T04C0.04400
%
T01
X100333Y18300
X117333Y18300
X133333Y16300
X163333Y16300
X179333Y12300
X201333Y9300
X163333Y6300
X133333Y6300
X179333Y22300
X163333Y26300
X133333Y26300
X117333Y28300
X100333Y28300
X133333Y36300
X163333Y36300
X201333Y19300
T02
X196333Y38300
X96333Y38300
T03
X89933Y8800
X118233Y8500
X135533Y57900
X160833Y58600
T04
X190333Y49300
X190333Y9300
M30
